<svg width="18" height="18" viewBox="0 0 18 18" fill="none" xmlns="http://www.w3.org/2000/svg">
<path d="M15.5 3.2V12.5C15.5 13 15.1033 13.5 14.5083 13.5H4.19421C3.79752 13.5 3.5 13.2 3.5 12.8V3.5C3.5 3 3.89669 2.5 4.49174 2.5H14.8058C15.2025 2.5 15.5 2.8 15.5 3.2Z" stroke="#006CE1" stroke-miterlimit="10"/>
<path d="M17.5 10C17.7761 10 18 9.77614 18 9.5C18 9.22386 17.7761 9 17.5 9V10ZM15.5 10H17.5V9H15.5V10Z" fill="#006CE1"/>
<path d="M17.5 7C17.7761 7 18 6.77614 18 6.5C18 6.22386 17.7761 6 17.5 6V7ZM15.5 7H17.5V6H15.5V7Z" fill="#006CE1"/>
<path d="M11.8 6.99998H9.8L11.6 4.09998H9.3L7.1 8.39998H8.8L7.1 12.5L11.8 6.99998Z" fill="#006CE1"/>
<path d="M17.5 16C17.7761 16 18 15.7761 18 15.5C18 15.2239 17.7761 15 17.5 15V16ZM3.4 15C2.07614 15 1 13.9239 1 12.6H0C0 14.4761 1.52386 16 3.4 16V15ZM1 12.6V11.4H0V12.6H1ZM1 11.4C1 10.0761 2.07614 9 3.4 9V8C1.52386 8 0 9.52386 0 11.4H1ZM17.5 15H3.4V16H17.5V15Z" fill="#006CE1"/>
</svg>
