<svg width="80" height="80" viewBox="0 0 80 80" fill="none" xmlns="http://www.w3.org/2000/svg" svg-inline="" aria-hidden="true" role="presentation" focusable="false" tabindex="-1" class="Footer__communityListIcon__1zeIE Footer__iconRog__3yriN"><path d="M56.66 13.112A39.093 39.093 0 0046.759 10a29.022 29.022 0 00-1.269 2.634 36.36 36.36 0 00-10.975 0A28.133 28.133 0 0033.231 10a38.963 38.963 0 00-9.91 3.12c-6.268 9.47-7.967 18.705-7.117 27.81 4.156 3.103 8.185 4.989 12.145 6.223a30.203 30.203 0 002.601-4.284 25.574 25.574 0 01-4.096-1.994c.344-.254.68-.52 1.004-.794 7.898 3.694 16.48 3.694 24.284 0 .328.274.664.54 1.004.794a25.509 25.509 0 01-4.104 1.998 30.073 30.073 0 002.601 4.284c3.964-1.234 7.996-3.12 12.153-6.228.997-10.554-1.703-19.704-7.135-27.817zM32.027 35.33c-2.37 0-4.315-2.213-4.315-4.908 0-2.696 1.903-4.913 4.315-4.913 2.413 0 4.357 2.213 4.316 4.913.003 2.695-1.903 4.908-4.316 4.908zm15.947 0c-2.37 0-4.315-2.213-4.315-4.908 0-2.696 1.903-4.913 4.316-4.913 2.412 0 4.356 2.213 4.315 4.913 0 2.695-1.903 4.908-4.316 4.908zM39.636 66.725c-.568-.984-1.378-1.758-2.406-2.323-1.006-.545-2.078-.838-3.171-.838-.963 0-1.882.21-2.757.607a7.195 7.195 0 00-1.859 1.256c-.569.545-1.006 1.194-1.356 1.947a6.177 6.177 0 00-.503 2.47c0 .545.087 1.09.24 1.613a6.17 6.17 0 00.7 1.55c.307.502.744.983 1.29 1.444a5.789 5.789 0 001.926 1.11 6.415 6.415 0 002.275.397 6.431 6.431 0 003.193-.837 6.279 6.279 0 002.407-2.324c.568-.984.852-2.01.852-3.057.044-1.005-.262-2.03-.83-3.015zm-1.4 3.015c0 .775-.197 1.487-.568 2.157a3.9 3.9 0 01-1.553 1.507c-1.313.712-2.8.733-4.156-.021-.678-.377-1.203-.88-1.553-1.507a3.998 3.998 0 01-.547-2.031c0-.775.196-1.487.568-2.136a3.87 3.87 0 011.575-1.528c.678-.377 1.378-.565 2.056-.565.679 0 1.357.188 2.035.544a4.11 4.11 0 011.596 1.487c.35.607.547 1.319.547 2.093zM68.882 73.718l-.569.188c-.175.063-.503.126-1.203.126-.744 0-1.422-.23-1.422-1.842v-6.595h3.194v-1.968h-3.194v-2.785l-2.406.817v1.947h-2.34c-2.69 0-4.856 2.03-4.856 4.543v7.453h2.406v-7.16c0-1.612 1.18-2.763 2.734-2.847h2.056v6.302c0 1.528.284 2.512.94 3.14.591.628 1.51.963 2.691.963.766 0 1.422-.084 1.947-.272l.415-.147-.393-1.863zM27.386 63.627c-2.69 0-4.9 2.052-4.9 4.564v7.453h2.407v-7.202c0-1.633 1.224-2.805 2.8-2.847 0 0 1.05-1.842 1.071-1.884-.634-.084-1.378-.084-1.378-.084zM13.214 75.644v-7.18h.809c2.165 0 3.61-.085 4.419-.273 1.137-.272 2.034-.775 2.69-1.55.656-.774.984-1.758.984-2.91 0-1.15-.35-2.135-1.006-2.93a4.682 4.682 0 00-2.581-1.529c-.722-.188-2.034-.272-4.025-.272H10.72v16.644h2.494zm0-14.299h2.603c1.093 0 1.88.084 2.34.251.438.168.766.44 1.028.817.263.398.394.816.394 1.298 0 .481-.131.92-.394 1.319-.262.397-.612.67-1.093.837-.482.188-1.291.272-2.407.272l-2.471-.02v-4.774zM47.992 59h-.897l-7.109 16.644h2.45l2.231-5.234h5.666l2.253 5.234h2.406l-7-16.644zm-2.34 9.128l1.88-4.376 1.86 4.376h-3.74z" fill="#818181"/></svg>