<svg width="80" height="80" viewBox="0 0 80 80" fill="none" xmlns="http://www.w3.org/2000/svg" svg-inline="" aria-hidden="true" role="presentation" focusable="false" tabindex="-1" class="Footer__communityListIcon__1zeIE Footer__iconRog__3yriN"><g clip-path="url(#clip0_106_296)" fill="#818181"><path d="M49.7 4H30.3C22.407 4 16 10.406 16 18.3v19.4C16 45.593 22.406 52 30.3 52h19.4C57.593 52 64 45.594 64 37.7V18.3C64 10.407 57.594 4 49.7 4zm9.473 33.744a9.473 9.473 0 01-9.474 9.474H30.301a9.472 9.472 0 01-9.474-9.474V18.346a9.473 9.473 0 019.474-9.474h19.398a9.473 9.473 0 019.474 9.474v19.398z"/><path d="M39.954 15.594c-6.858 0-12.406 5.594-12.406 12.406s5.594 12.406 12.406 12.406S52.36 34.812 52.36 28s-5.55-12.406-12.406-12.406zm0 20.03a7.566 7.566 0 01-7.58-7.579 7.566 7.566 0 017.58-7.579 7.567 7.567 0 017.579 7.58c.045 4.15-3.384 7.578-7.58 7.578zM52.406 18.662a2.978 2.978 0 100-5.955 2.978 2.978 0 000 5.955z"/></g><path d="M39.636 66.725c-.568-.984-1.378-1.758-2.406-2.323-1.006-.545-2.078-.838-3.171-.838-.963 0-1.882.21-2.757.607a7.195 7.195 0 00-1.859 1.256c-.569.545-1.006 1.194-1.356 1.947a6.177 6.177 0 00-.503 2.47c0 .545.087 1.09.24 1.613a6.17 6.17 0 00.7 1.55c.307.502.744.983 1.29 1.444a5.789 5.789 0 001.926 1.11 6.415 6.415 0 002.275.397 6.431 6.431 0 003.193-.837 6.279 6.279 0 002.407-2.324c.568-.984.852-2.01.852-3.057.044-1.005-.262-2.03-.83-3.015zm-1.4 3.015c0 .775-.197 1.487-.568 2.157a3.9 3.9 0 01-1.553 1.507c-1.313.712-2.8.733-4.156-.021-.678-.377-1.203-.88-1.553-1.507a3.998 3.998 0 01-.547-2.031c0-.775.196-1.487.568-2.136a3.87 3.87 0 011.575-1.528c.678-.377 1.378-.565 2.056-.565.679 0 1.357.188 2.035.544a4.11 4.11 0 011.596 1.487c.35.607.547 1.319.547 2.093zM68.882 73.718l-.569.188c-.175.063-.503.126-1.203.126-.744 0-1.422-.23-1.422-1.842v-6.595h3.194v-1.968h-3.194v-2.785l-2.406.817v1.947h-2.34c-2.69 0-4.856 2.03-4.856 4.543v7.453h2.406v-7.16c0-1.612 1.18-2.763 2.734-2.847h2.056v6.302c0 1.528.284 2.512.94 3.14.591.628 1.51.963 2.691.963.766 0 1.422-.084 1.947-.272l.415-.147-.393-1.863zM27.386 63.627c-2.69 0-4.9 2.052-4.9 4.564v7.453h2.407v-7.202c0-1.633 1.224-2.805 2.8-2.847 0 0 1.05-1.842 1.071-1.884-.634-.084-1.378-.084-1.378-.084zM13.214 75.644v-7.18h.809c2.165 0 3.61-.085 4.419-.273 1.137-.272 2.034-.775 2.69-1.55.656-.774.984-1.758.984-2.91 0-1.15-.35-2.135-1.006-2.93a4.682 4.682 0 00-2.581-1.529c-.722-.188-2.034-.272-4.025-.272H10.72v16.644h2.494zm0-14.299h2.603c1.093 0 1.88.084 2.34.251.438.168.766.44 1.028.817.263.398.394.816.394 1.298 0 .481-.131.92-.394 1.319-.262.397-.612.67-1.093.837-.482.188-1.291.272-2.407.272l-2.471-.02v-4.774zM47.992 59h-.897l-7.109 16.644h2.45l2.231-5.234h5.666l2.253 5.234h2.406l-7-16.644zm-2.34 9.128l1.88-4.376 1.86 4.376h-3.74z" fill="#818181"/><defs><clipPath id="clip0_106_296"><path fill="#fff" transform="translate(16 4)" d="M0 0h48v48H0z"/></clipPath></defs></svg>