<svg width="18" height="18" viewBox="0 0 18 18" fill="none" xmlns="http://www.w3.org/2000/svg">
<path d="M9 3.5V15.5" stroke="#006CE1" stroke-miterlimit="10"/>
<path d="M9 17C9.82843 17 10.5 16.3284 10.5 15.5C10.5 14.6716 9.82843 14 9 14C8.17157 14 7.5 14.6716 7.5 15.5C7.5 16.3284 8.17157 17 9 17Z" fill="#006CE1"/>
<path d="M4.5 8.5C5.32843 8.5 6 7.82843 6 7C6 6.17157 5.32843 5.5 4.5 5.5C3.67157 5.5 3 6.17157 3 7C3 7.82843 3.67157 8.5 4.5 8.5Z" fill="#006CE1"/>
<path d="M9 0L10 1.7L11 3.5H9H7L8 1.7L9 0Z" fill="#006CE1"/>
<path d="M4.5 8V10L9 12.5" stroke="#006CE1" stroke-miterlimit="10" stroke-linejoin="round"/>
<path d="M14 6.5V9L9 11" stroke="#006CE1" stroke-miterlimit="10" stroke-linejoin="round"/>
<path d="M15.5 4H12.5V7H15.5V4Z" fill="#006CE1"/>
</svg>
