<svg width="18" height="18" viewBox="0 0 18 18" fill="none" xmlns="http://www.w3.org/2000/svg">
<path d="M13.5 12.5H0.5V12.1957C0.5 8.44203 3.5 5.5 7.1 5.5H7.5C10.5 5.5 13.4 7.93478 13.4 10.9783V12.5H13.5Z" stroke="#006CE1" stroke-miterlimit="10" stroke-linejoin="round"/>
<path d="M7.5 12.5C7.5 12.5 10.1467 15.5 13 15.5C15.8533 15.5 17.5 15.5 17.5 15.5L13.5 12.5H7.5Z" stroke="#006CE1" stroke-miterlimit="10" stroke-linejoin="round"/>
<path d="M10.3 12.2C10.3 12.2 9.9 6.7 7.3 5.3C7.3 5.3 4 5.9 3.7 12.2" stroke="#006CE1" stroke-width="0.5" stroke-miterlimit="10" stroke-linejoin="round"/>
<path d="M8.6 5.3C8.6 4.6 8 4 7.3 4C6.6 4 6 4.6 6 5.3H8.6Z" fill="#006CE1"/>
</svg>
