<svg width="18" height="18" viewBox="0 0 18 18" fill="none" xmlns="http://www.w3.org/2000/svg">
<g clip-path="url(#clip0_2455_13569)">
<rect x="10.8284" y="0.807601" width="9" height="4" rx="0.5" transform="rotate(45 10.8284 0.807601)" stroke="#006CE1" stroke-linejoin="round"/>
<path d="M8.3536 4.69671C8.54886 4.50145 8.86544 4.50145 9.06071 4.69671L13.3033 8.93935C13.4986 9.13461 13.4986 9.45119 13.3033 9.64645L7.64649 15.3033C6.27966 16.6701 4.06358 16.6701 2.69675 15.3033C1.32991 13.9365 1.32991 11.7204 2.69675 10.3536L8.3536 4.69671Z" stroke="#006CE1" stroke-linejoin="round"/>
<rect x="2.34314" y="8.58578" width="2" height="2" rx="1" transform="rotate(45 2.34314 8.58578)" fill="#006CE1"/>
<rect x="8" y="14.2426" width="2" height="2" rx="1" transform="rotate(45 8 14.2426)" fill="#006CE1"/>
<rect x="2.34314" y="14.2426" width="2" height="2" rx="1" transform="rotate(45 2.34314 14.2426)" fill="#006CE1"/>
</g>
<defs>
<clipPath id="clip0_2455_13569">
<rect width="18" height="18" fill="white"/>
</clipPath>
</defs>
</svg>
