<svg width="18" height="18" viewBox="0 0 18 18" fill="none" xmlns="http://www.w3.org/2000/svg">
<path fill-rule="evenodd" clip-rule="evenodd" d="M5.2975 2H11.3875C12.1579 2 12.8362 2.5077 13.0532 3.24688L13.5446 4.91979C13.7572 5.64368 14.4121 6.14558 15.1627 6.16602L15.4356 6.16602C18.5186 6.16602 17.4529 9.76538 16.6385 12.4566C15.9511 14.7282 14.92 16.9998 13.2015 16.9998H8.38246C8.37772 16.9999 8.37297 16.9999 8.36822 16.9999H7.29186C7.28714 16.9999 7.28241 16.9999 7.2777 16.9998H7.18677C7.20363 16.9998 7.22033 16.9996 7.23688 16.999C6.48662 16.9755 5.8336 16.471 5.62401 15.7459L5.14454 14.0872C4.92985 13.3445 4.24986 12.8332 3.47673 12.8332H3.13501L3.13757 12.832H3.06344C-0.0195391 12.832 1.04611 9.23322 1.8605 6.54245C2.54789 4.27122 3.57899 2 5.2975 2ZM5.33758 12.832L5.33995 12.8332H8.30961C9.03479 12.8332 9.67827 12.3834 9.9324 11.7142C10.3945 10.1254 10.86 8.50225 11.1678 7.42549C11.381 6.67924 12.0624 6.16602 12.8385 6.16602C12.8226 6.16602 12.8066 6.16623 12.7908 6.16666H10.1869C9.47013 6.16666 8.8333 6.60604 8.57318 7.26224C8.10896 8.8579 7.64048 10.4909 7.33131 11.5726C7.11801 12.3188 6.43667 12.832 5.66057 12.832H5.33758ZM9.46541 13.311C9.25291 13.3935 8.89493 13.4986 8.44896 13.4986L5.69385 13.4986L6.20605 15.4224C6.33743 15.9095 6.74794 16.2441 7.21421 16.2441H7.25982C7.4165 16.2441 7.35573 16.2441 7.28766 16.2441C7.19987 16.2441 7.09993 16.2441 7.43875 16.2441C8.03966 16.2441 8.44813 16.1525 8.90675 15.1452C9.02946 14.7851 9.14721 14.3873 9.2724 13.9643L9.30327 13.8601C9.35619 13.6814 9.41034 13.498 9.46541 13.311ZM9.22661 5.03506C9.30198 4.78047 9.37464 4.535 9.44732 4.30138C9.50886 4.15721 9.57423 4.00821 9.64289 3.85717C10.1021 2.84696 10.5108 2.75513 11.1123 2.75513C11.4517 2.75513 11.3508 2.75514 11.2629 2.75515H11.2608C11.1938 2.75515 11.1365 2.75516 11.2912 2.75516H11.3368C11.8031 2.75516 12.2136 3.08975 12.345 3.57689L12.8572 5.50068H10.1021C9.61174 5.50068 9.22778 5.62765 9.02659 5.71211C9.08409 5.51681 9.1406 5.32541 9.19578 5.1392L9.22661 5.03506Z" fill="#006CE1"/>
<path d="M15.5579 6.16666L15.5549 6.16787C15.5389 6.16736 15.5228 6.16696 15.5066 6.16666H15.5579Z" fill="#006CE1"/>
</svg>
