<svg width="18" height="18" viewBox="0 0 18 18" fill="none" xmlns="http://www.w3.org/2000/svg">
<g clip-path="url(#clip0_6852_4038)">
<mask id="mask0_6852_4038" style="mask-type:luminance" maskUnits="userSpaceOnUse" x="0" y="0" width="18" height="18">
<path d="M18 0H0V18H18V0Z" fill="white"/>
</mask>
<g mask="url(#mask0_6852_4038)">
<path d="M14.9222 14.0161H3.07778C2.78889 14.0161 2.5 13.8526 2.5 13.6891V1.34316C2.5 1.17963 2.78889 1.01611 3.07778 1.01611H14.9222C15.2111 1.01611 15.5 1.17963 15.5 1.34316V13.6891C15.5 13.9344 15.2111 14.0161 14.9222 14.0161Z" stroke="#006CE1" stroke-miterlimit="10"/>
<path d="M4.7002 16.5002H10.157C13.3165 16.5002 13.0082 15.5967 13.0082 13.9358" stroke="#006CE1" stroke-miterlimit="10" stroke-linejoin="round"/>
<path d="M4.5 16.5H6H7.5" stroke="#006CE1" stroke-width="2" stroke-miterlimit="10"/>
<path fill-rule="evenodd" clip-rule="evenodd" d="M13.5 11.8161C13.5 11.9266 13.4105 12.0161 13.3 12.0161H11.5009L10.7062 11.68H8.09601H4.7C4.58954 11.68 4.5 11.5904 4.5 11.48V3.21611C4.5 3.10565 4.58954 3.01611 4.7 3.01611H6.50099L7.29794 3.57914H9.70494H13.3C13.4105 3.57914 13.5 3.66868 13.5 3.77914V11.8161ZM10.7015 8.22936L8.95099 9.24C8.71184 9.37807 8.40605 9.29613 8.26798 9.05698C8.12991 8.81784 8.21184 8.51204 8.45099 8.37397L10.2015 7.36334L11.0491 6.87397C11.2882 6.7359 11.594 6.81784 11.7321 7.05698C11.8701 7.29613 11.7882 7.60192 11.5491 7.73999L10.7015 8.22936ZM6.95099 8.15825L8.70145 7.14762L9.54907 6.65825C9.78821 6.52017 9.87015 6.21438 9.73208 5.97523C9.59401 5.73609 9.28821 5.65415 9.04907 5.79222L8.20145 6.28159L6.45099 7.29222C6.21184 7.43029 6.12991 7.73609 6.26798 7.97523C6.40605 8.21438 6.71184 8.29632 6.95099 8.15825Z" fill="#006CE1"/>
</g>
</g>
<defs>
<clipPath id="clip0_6852_4038">
<rect width="18" height="18" fill="white"/>
</clipPath>
</defs>
</svg>
