<svg width="18" height="18" viewBox="0 0 18 18" fill="none" xmlns="http://www.w3.org/2000/svg">
<path d="M8.39233e-05 2.5H1.49997V3.5M1.49997 3.5V14.5H4.99999C5.27613 14.5 5.49999 14.2761 5.49999 14V14C5.49999 13.7239 5.72385 13.5 5.99999 13.5H7.99999C8.27613 13.5 8.49999 13.7239 8.49999 14V14C8.49999 14.2761 8.72385 14.5 8.99999 14.5H12C12.2761 14.5 12.5 14.2761 12.5 14V14C12.5 13.7239 12.7238 13.5 13 13.5H17.5001V7.5C17.5001 5.29086 15.7092 3.5 13.5001 3.5H1.49997Z" stroke="#006CE1"/>
<line x1="2.00008" y1="6.5" x2="6.00008" y2="6.5" stroke="#006CE1"/>
<line x1="2.00008" y1="8.5" x2="6.00008" y2="8.5" stroke="#006CE1"/>
<circle cx="12.5001" cy="8.5" r="3" stroke="#006CE1"/>
<path fill-rule="evenodd" clip-rule="evenodd" d="M13.0001 6H12.0001V8L10.0001 8V9H12.0001V11H13.0001V9H15.0001V8L13.0001 8V6ZM13.0001 8H12.0001V9L13.0001 9V8Z" fill="#006CE1"/>
</svg>
