<svg width="18" height="18" viewBox="0 0 18 18" fill="none" xmlns="http://www.w3.org/2000/svg">
<g clip-path="url(#clip0_2455_13352)">
<path d="M15.7 12.3C14.2 11.9 12.4 11.2 10.6 10.1C10.9 9.6 11 9.1 10.9 8.5C12.7 7.9 14.2 6.7 15.5 5.3C16.8 7.5 16.8 10.2 15.7 12.3ZM12.3 2.3C11.9 3.8 11.2 5.6 10.1 7.4C9.6 7 9.1 6.9 8.5 7.1C7.9 5.2 6.8 3.7 5.3 2.4C7.5 1.2 10.2 1.2 12.3 2.3ZM2.3 5.7C3.8 6.1 5.6 6.8 7.4 7.9C7 8.4 6.9 8.9 7.1 9.5C5.3 10.1 3.8 11.3 2.5 12.7C1.2 10.5 1.2 7.8 2.3 5.7ZM5.7 15.7C6.1 14.2 6.8 12.4 7.9 10.6C8.4 10.9 8.9 11 9.5 10.9C10.1 12.7 11.3 14.2 12.7 15.5C10.5 16.8 7.8 16.8 5.7 15.7Z" stroke="#006CE1" stroke-miterlimit="10"/>
</g>
<defs>
<clipPath id="clip0_2455_13352">
<rect width="16" height="16" fill="white" transform="translate(1 1)"/>
</clipPath>
</defs>
</svg>
