<svg width="18" height="18" viewBox="0 0 18 18" fill="none" xmlns="http://www.w3.org/2000/svg">
<g clip-path="url(#clip0_2455_13613)">
<path d="M2.5 9.5V3.8C2.5 3.63431 2.63431 3.5 2.8 3.5H15.2C15.3657 3.5 15.5 3.63431 15.5 3.8V13.2C15.5 13.3657 15.3657 13.5 15.2 13.5H11" stroke="#006CE1"/>
<path d="M7.37021 14L7.72215 13.6449L7.57599 13.5H7.37021H3.68511H3.46112L3.31201 13.6672L3.68511 14L3.312 13.6672L3.31196 13.6672L3.31181 13.6674L3.31121 13.6681L3.30878 13.6708L3.29924 13.6815L3.26274 13.7223L3.13064 13.87C3.02031 13.9933 2.871 14.1598 2.7149 14.333C2.39613 14.6869 2.06745 15.0483 1.96952 15.1459C1.83424 15.2807 1.47306 15.5056 1.00428 15.272C0.784152 15.1623 0.658835 14.9789 0.58513 14.7777C0.525385 14.6147 0.507824 14.4596 0.503346 14.3749C0.567885 14.1242 0.771785 13.3485 1.00553 12.5128C1.26942 11.5695 1.55851 10.5971 1.72749 10.1928C2.0442 9.43515 2.5582 9.21564 2.73404 9.21564H8.45873C8.65711 9.21564 9.22958 9.4599 9.53602 10.1865C9.70314 10.623 9.92857 11.5458 10.1277 12.4369C10.2369 12.9259 10.3388 13.4083 10.4132 13.7608C10.4693 14.0266 10.5098 14.2185 10.5261 14.2835C10.5486 14.3731 10.5764 14.593 10.5308 14.8109C10.4881 15.0154 10.3929 15.1763 10.2009 15.272C9.7321 15.5056 9.37092 15.2807 9.23564 15.1459C9.12493 15.0355 8.74615 14.6599 8.39588 14.3126L7.92754 13.8484L7.77812 13.7003L7.73672 13.6593L7.72587 13.6485L7.72309 13.6458L7.72239 13.6451L7.72221 13.6449L7.72217 13.6449L7.37021 14Z" stroke="#006CE1" stroke-miterlimit="10"/>
<path d="M4.05533 11H3.05533V12H4.05533V11Z" fill="#006CE1"/>
<path d="M8.05533 11H7.05533V12H8.05533V11Z" fill="#006CE1"/>
<path d="M10.0724 13.1447C10.0391 13.0782 10.0875 13 10.1618 13H17.8753C17.9393 13 17.9868 13.0592 17.973 13.1217L17.9518 13.2169C17.8501 13.6745 17.4443 14 16.9756 14H11.118C10.7393 14 10.393 13.786 10.2236 13.4472L10.0724 13.1447Z" fill="#006CE1"/>
</g>
<defs>
<clipPath id="clip0_2455_13613">
<rect width="18" height="18" fill="white"/>
</clipPath>
</defs>
</svg>
