<svg width="18" height="18" viewBox="0 0 18 18" fill="none" xmlns="http://www.w3.org/2000/svg">
<path d="M13.2728 10.1414C13.1728 10.0414 13.0728 9.94142 12.9728 10.0414L9.47279 12.4414C9.37279 12.3414 9.07279 12.3414 8.87279 12.3414C8.27279 12.4414 7.77279 12.9414 7.87279 13.6414C7.97279 14.2414 8.47279 14.7414 9.17279 14.6414C9.77279 14.5414 10.2728 14.0414 10.1728 13.3414L13.3728 10.4414C13.3728 10.4414 13.3728 10.2414 13.2728 10.1414Z" fill="#006CE1"/>
<path fill-rule="evenodd" clip-rule="evenodd" d="M2 12.5H1.01537C1.27347 8.31464 4.74965 5 9 5C13.2504 5 16.7265 8.31464 16.9846 12.5H16.5H16H15V13.5H16H16.5H17.5H18V13C18 8.02944 13.9706 4 9 4C4.02944 4 0 8.02944 0 13V13.5H0.5H2H3H3.5V13C3.5 9.96243 5.96243 7.5 9 7.5C10.3952 7.5 11.668 8.01885 12.6379 8.87487L13.2996 8.12513C12.1541 7.11406 10.6481 6.5 9 6.5C5.57839 6.5 2.77426 9.14378 2.51894 12.5H2Z" fill="#006CE1"/>
</svg>
