<svg width="18" height="18" viewBox="0 0 18 18" fill="none" xmlns="http://www.w3.org/2000/svg">
<path d="M5.5 8.5H4.5L3.5 9.5V12.5C3.5 13.0523 3.94772 13.5 4.5 13.5H13.5C14.0523 13.5 14.5 13.0523 14.5 12.5V9.5L13.5 8.5H12.5" stroke="#006CE1" stroke-linecap="round" stroke-linejoin="round"/>
<path d="M3.5 4.8V6.5L5.5 7.5V11.5H12.5V7.5L14.5 6.5V4.8L9.92857 0.5H8.07143L3.5 4.8Z" stroke="#006CE1" stroke-linecap="round" stroke-linejoin="round"/>
<path d="M6.5 3.5H11.5" stroke="#006CE1" stroke-linecap="round" stroke-linejoin="round"/>
<path d="M6.5 1.5V3.5H11.5V1.5" stroke="#006CE1" stroke-linecap="round" stroke-linejoin="round"/>
<path d="M8.5 17.5V13.5H9.5V17.5H8.5Z" stroke="#006CE1" stroke-linecap="round" stroke-linejoin="round"/>
<path d="M9.5 14.5L14.5 17.5" stroke="#006CE1" stroke-linecap="round" stroke-linejoin="round"/>
<path d="M8.5 14.5L3.5 17.5" stroke="#006CE1" stroke-linecap="round" stroke-linejoin="round"/>
</svg>
