<svg width="18" height="18" viewBox="0 0 18 18" fill="none" xmlns="http://www.w3.org/2000/svg">
<path d="M6 3.53992H15" stroke="#006CE1" stroke-miterlimit="10" stroke-linecap="round"/>
<mask id="path-2-inside-1_4255_1033" fill="white">
<path d="M3 4.03992C3.27614 4.03992 3.5 3.81606 3.5 3.53992C3.5 3.26377 3.27614 3.03992 3 3.03992C2.72386 3.03992 2.5 3.26377 2.5 3.53992C2.5 3.81606 2.72386 4.03992 3 4.03992Z"/>
</mask>
<path d="M3 4.03992C3.27614 4.03992 3.5 3.81606 3.5 3.53992C3.5 3.26377 3.27614 3.03992 3 3.03992C2.72386 3.03992 2.5 3.26377 2.5 3.53992C2.5 3.81606 2.72386 4.03992 3 4.03992Z" fill="#006CE1"/>
<path d="M2.5 3.53992C2.5 3.26377 2.72386 3.03992 3 3.03992V5.03992C3.82843 5.03992 4.5 4.36834 4.5 3.53992H2.5ZM3 3.03992C3.27614 3.03992 3.5 3.26377 3.5 3.53992H1.5C1.5 4.36834 2.17157 5.03992 3 5.03992V3.03992ZM3.5 3.53992C3.5 3.81606 3.27614 4.03992 3 4.03992V2.03992C2.17157 2.03992 1.5 2.71149 1.5 3.53992H3.5ZM3 4.03992C2.72386 4.03992 2.5 3.81606 2.5 3.53992H4.5C4.5 2.71149 3.82843 2.03992 3 2.03992V4.03992Z" fill="#006CE1" mask="url(#path-2-inside-1_4255_1033)"/>
<mask id="path-4-inside-2_4255_1033" fill="white">
<path d="M4.5 4.03992C4.77614 4.03992 5 3.81606 5 3.53992C5 3.26377 4.77614 3.03992 4.5 3.03992C4.22386 3.03992 4 3.26377 4 3.53992C4 3.81606 4.22386 4.03992 4.5 4.03992Z"/>
</mask>
<path d="M4.5 4.03992C4.77614 4.03992 5 3.81606 5 3.53992C5 3.26377 4.77614 3.03992 4.5 3.03992C4.22386 3.03992 4 3.26377 4 3.53992C4 3.81606 4.22386 4.03992 4.5 4.03992Z" fill="#006CE1"/>
<path d="M4 3.53992C4 3.26377 4.22386 3.03992 4.5 3.03992V5.03992C5.32843 5.03992 6 4.36834 6 3.53992H4ZM4.5 3.03992C4.77614 3.03992 5 3.26377 5 3.53992H3C3 4.36834 3.67157 5.03992 4.5 5.03992V3.03992ZM5 3.53992C5 3.81606 4.77614 4.03992 4.5 4.03992V2.03992C3.67157 2.03992 3 2.71149 3 3.53992H5ZM4.5 4.03992C4.22386 4.03992 4 3.81606 4 3.53992H6C6 2.71149 5.32843 2.03992 4.5 2.03992V4.03992Z" fill="#006CE1" mask="url(#path-4-inside-2_4255_1033)"/>
<path d="M16.96 0.959961H1.04C0.741766 0.959961 0.5 1.20173 0.5 1.49996V5.48996C0.5 5.78819 0.741766 6.02996 1.04 6.02996H16.96C17.2582 6.02996 17.5 5.78819 17.5 5.48996V1.49996C17.5 1.20173 17.2582 0.959961 16.96 0.959961Z" stroke="#006CE1" stroke-miterlimit="10"/>
<path d="M6 9.03992H15" stroke="#006CE1" stroke-miterlimit="10" stroke-linecap="round"/>
<mask id="path-8-inside-3_4255_1033" fill="white">
<path d="M3 9.53992C3.27614 9.53992 3.5 9.31606 3.5 9.03992C3.5 8.76377 3.27614 8.53992 3 8.53992C2.72386 8.53992 2.5 8.76377 2.5 9.03992C2.5 9.31606 2.72386 9.53992 3 9.53992Z"/>
</mask>
<path d="M3 9.53992C3.27614 9.53992 3.5 9.31606 3.5 9.03992C3.5 8.76377 3.27614 8.53992 3 8.53992C2.72386 8.53992 2.5 8.76377 2.5 9.03992C2.5 9.31606 2.72386 9.53992 3 9.53992Z" fill="#006CE1"/>
<path d="M2.5 9.03992C2.5 8.76377 2.72386 8.53992 3 8.53992V10.5399C3.82843 10.5399 4.5 9.86834 4.5 9.03992H2.5ZM3 8.53992C3.27614 8.53992 3.5 8.76377 3.5 9.03992H1.5C1.5 9.86834 2.17157 10.5399 3 10.5399V8.53992ZM3.5 9.03992C3.5 9.31606 3.27614 9.53992 3 9.53992V7.53992C2.17157 7.53992 1.5 8.21149 1.5 9.03992H3.5ZM3 9.53992C2.72386 9.53992 2.5 9.31606 2.5 9.03992H4.5C4.5 8.21149 3.82843 7.53992 3 7.53992V9.53992Z" fill="#006CE1" mask="url(#path-8-inside-3_4255_1033)"/>
<mask id="path-10-inside-4_4255_1033" fill="white">
<path d="M4.5 9.53992C4.77614 9.53992 5 9.31606 5 9.03992C5 8.76377 4.77614 8.53992 4.5 8.53992C4.22386 8.53992 4 8.76377 4 9.03992C4 9.31606 4.22386 9.53992 4.5 9.53992Z"/>
</mask>
<path d="M4.5 9.53992C4.77614 9.53992 5 9.31606 5 9.03992C5 8.76377 4.77614 8.53992 4.5 8.53992C4.22386 8.53992 4 8.76377 4 9.03992C4 9.31606 4.22386 9.53992 4.5 9.53992Z" fill="#006CE1"/>
<path d="M4 9.03992C4 8.76377 4.22386 8.53992 4.5 8.53992V10.5399C5.32843 10.5399 6 9.86834 6 9.03992H4ZM4.5 8.53992C4.77614 8.53992 5 8.76377 5 9.03992H3C3 9.86834 3.67157 10.5399 4.5 10.5399V8.53992ZM5 9.03992C5 9.31606 4.77614 9.53992 4.5 9.53992V7.53992C3.67157 7.53992 3 8.21149 3 9.03992H5ZM4.5 9.53992C4.22386 9.53992 4 9.31606 4 9.03992H6C6 8.21149 5.32843 7.53992 4.5 7.53992V9.53992Z" fill="#006CE1" mask="url(#path-10-inside-4_4255_1033)"/>
<path d="M16.96 6.45996H1.04C0.741766 6.45996 0.5 6.70173 0.5 6.99996V10.99C0.5 11.2882 0.741766 11.53 1.04 11.53H16.96C17.2582 11.53 17.5 11.2882 17.5 10.99V6.99996C17.5 6.70173 17.2582 6.45996 16.96 6.45996Z" stroke="#006CE1" stroke-miterlimit="10"/>
<path d="M6 14.5399H15" stroke="#006CE1" stroke-miterlimit="10" stroke-linecap="round"/>
<mask id="path-14-inside-5_4255_1033" fill="white">
<path d="M3 15.0399C3.27614 15.0399 3.5 14.8161 3.5 14.5399C3.5 14.2638 3.27614 14.0399 3 14.0399C2.72386 14.0399 2.5 14.2638 2.5 14.5399C2.5 14.8161 2.72386 15.0399 3 15.0399Z"/>
</mask>
<path d="M3 15.0399C3.27614 15.0399 3.5 14.8161 3.5 14.5399C3.5 14.2638 3.27614 14.0399 3 14.0399C2.72386 14.0399 2.5 14.2638 2.5 14.5399C2.5 14.8161 2.72386 15.0399 3 15.0399Z" fill="#006CE1"/>
<path d="M2.5 14.5399C2.5 14.2638 2.72386 14.0399 3 14.0399V16.0399C3.82843 16.0399 4.5 15.3683 4.5 14.5399H2.5ZM3 14.0399C3.27614 14.0399 3.5 14.2638 3.5 14.5399H1.5C1.5 15.3683 2.17157 16.0399 3 16.0399V14.0399ZM3.5 14.5399C3.5 14.8161 3.27614 15.0399 3 15.0399V13.0399C2.17157 13.0399 1.5 13.7115 1.5 14.5399H3.5ZM3 15.0399C2.72386 15.0399 2.5 14.8161 2.5 14.5399H4.5C4.5 13.7115 3.82843 13.0399 3 13.0399V15.0399Z" fill="#006CE1" mask="url(#path-14-inside-5_4255_1033)"/>
<mask id="path-16-inside-6_4255_1033" fill="white">
<path d="M4.5 15.0399C4.77614 15.0399 5 14.8161 5 14.5399C5 14.2638 4.77614 14.0399 4.5 14.0399C4.22386 14.0399 4 14.2638 4 14.5399C4 14.8161 4.22386 15.0399 4.5 15.0399Z"/>
</mask>
<path d="M4.5 15.0399C4.77614 15.0399 5 14.8161 5 14.5399C5 14.2638 4.77614 14.0399 4.5 14.0399C4.22386 14.0399 4 14.2638 4 14.5399C4 14.8161 4.22386 15.0399 4.5 15.0399Z" fill="#006CE1"/>
<path d="M4 14.5399C4 14.2638 4.22386 14.0399 4.5 14.0399V16.0399C5.32843 16.0399 6 15.3683 6 14.5399H4ZM4.5 14.0399C4.77614 14.0399 5 14.2638 5 14.5399H3C3 15.3683 3.67157 16.0399 4.5 16.0399V14.0399ZM5 14.5399C5 14.8161 4.77614 15.0399 4.5 15.0399V13.0399C3.67157 13.0399 3 13.7115 3 14.5399H5ZM4.5 15.0399C4.22386 15.0399 4 14.8161 4 14.5399H6C6 13.7115 5.32843 13.0399 4.5 13.0399V15.0399Z" fill="#006CE1" mask="url(#path-16-inside-6_4255_1033)"/>
<path d="M16.96 11.96H1.04C0.741766 11.96 0.5 12.2017 0.5 12.5V16.49C0.5 16.7882 0.741766 17.03 1.04 17.03H16.96C17.2582 17.03 17.5 16.7882 17.5 16.49V12.5C17.5 12.2017 17.2582 11.96 16.96 11.96Z" stroke="#006CE1" stroke-miterlimit="10"/>
</svg>
