<svg width="18" height="18" viewBox="0 0 18 18" fill="none" xmlns="http://www.w3.org/2000/svg">
<path d="M5.5 11C4.478 11 3.24968 12.6505 3.03333 13.7025C2.99995 13.8648 3.13318 14 3.29887 14H14.7011C14.8668 14 14.9987 13.8659 14.9681 13.7031C14.7438 12.5094 13.3719 10 12 10C10.5 10 9.8125 12 8.5 12C7.1875 12 6.625 11 5.5 11Z" fill="#006CE1"/>
<path d="M8.5 3.5H1.5V15.5H16.5V3.5H15.5" stroke="#006CE1" stroke-linecap="round" stroke-linejoin="round"/>
<path d="M9.31395 6.2C9.31395 6.2 10.1139 6.4 10.5139 7.1C10.7139 6.9 13.6139 3.2 14.6139 0C14.2139 0.3 10.6139 4.3 9.31395 6.2Z" fill="#006CE1"/>
<path d="M9.71395 7C9.71395 7 9.01395 6.5 8.31395 7.1C7.81395 7.6 7.81395 8.1 7.81395 8.4C7.81395 8.7 7.91395 9.6 7.01395 9.9C6.81395 10.1 8.81395 10.5 9.81395 8.9C10.314 7.7 10.114 7.3 9.71395 7Z" fill="#006CE1"/>
</svg>
