<svg width="18" height="18" viewBox="0 0 18 18" fill="none" xmlns="http://www.w3.org/2000/svg">
<path d="M2.49996 13.5C2.49996 13.5 2.49996 12.7222 2.49996 9.11112C2.49996 5.5 4.99996 2.5 8.99996 2.5C13 2.5 15.5 5.5 15.5 8.72222C15.5 11.9444 15.5 11.2436 15.5 13.5" stroke="#006CE1" stroke-miterlimit="10" stroke-linecap="round"/>
<path d="M4.99996 16C4.4615 16 3.99996 15.4545 3.99996 14.8182V11.1818C3.99996 10.5455 4.4615 10 4.99996 10C5.53842 10 5.99996 10.5455 5.99996 11.1818V14.8182C5.99996 15.4545 5.53842 16 4.99996 16Z" fill="#006CE1"/>
<path d="M13 16C12.4615 16 12 15.4545 12 14.8182V11.1818C12 10.5455 12.4615 10 13 10C13.5384 10 14 10.5455 14 11.1818V14.8182C14 15.4545 13.5384 16 13 16Z" fill="#006CE1"/>
</svg>
