<?xml version="1.0" encoding="UTF-8"?>
<svg xmlns="http://www.w3.org/2000/svg" xmlns:xlink="http://www.w3.org/1999/xlink" width="18px" height="18px" viewBox="0 0 18 18" version="1.1">
<g id="surface1">
<path style=" stroke:none;fill-rule:nonzero;fill:rgb(0%,42.352941%,88.235294%);fill-opacity:1;" d="M 0.101562 2.621094 L 1.390625 2.621094 L 1.390625 3.910156 L 0.101562 3.910156 Z M 0.101562 2.621094 "/>
<path style=" stroke:none;fill-rule:nonzero;fill:rgb(0%,42.352941%,88.235294%);fill-opacity:1;" d="M 1.359375 9.328125 L 1.359375 4.691406 L 0.140625 4.691406 L 0.140625 9.328125 Z M 9.460938 9.378906 L 9.460938 8.238281 C 9.28125 8.238281 9.128906 8.230469 9.019531 8.210938 C 8.890625 8.191406 8.800781 8.148438 8.730469 8.078125 C 8.671875 8.019531 8.621094 7.921875 8.601562 7.800781 C 8.578125 7.691406 8.570312 7.53125 8.570312 7.351562 L 8.570312 5.730469 L 9.460938 5.730469 L 9.460938 4.679688 L 8.570312 4.679688 L 8.570312 2.871094 L 7.351562 2.871094 L 7.351562 7.371094 C 7.351562 7.75 7.378906 8.070312 7.449219 8.328125 C 7.511719 8.578125 7.621094 8.789062 7.78125 8.949219 C 7.929688 9.101562 8.128906 9.21875 8.378906 9.28125 C 8.628906 9.351562 8.941406 9.378906 9.308594 9.378906 Z M 16.46875 9.328125 L 16.46875 2.53125 L 15.25 2.53125 L 15.25 9.339844 L 16.46875 9.339844 Z M 6.179688 5.148438 C 5.839844 4.78125 5.359375 4.601562 4.761719 4.601562 C 4.46875 4.601562 4.199219 4.660156 3.960938 4.78125 C 3.71875 4.898438 3.519531 5.070312 3.351562 5.28125 L 3.28125 5.371094 L 3.28125 5.289062 C 3.28125 5.289062 3.28125 4.699219 3.28125 4.699219 L 2.070312 4.699219 L 2.070312 9.339844 L 3.28125 9.339844 L 3.28125 7.039062 C 3.28125 7.039062 3.28125 6.980469 3.28125 6.960938 C 3.289062 6.53125 3.398438 6.199219 3.601562 6 C 3.808594 5.78125 4.078125 5.671875 4.378906 5.671875 C 4.730469 5.671875 5 5.78125 5.179688 5.988281 C 5.351562 6.199219 5.441406 6.5 5.449219 6.878906 L 5.449219 9.328125 L 6.679688 9.328125 L 6.679688 6.699219 C 6.679688 6.039062 6.511719 5.519531 6.171875 5.148438 Z M 14.609375 7 C 14.609375 6.671875 14.550781 6.351562 14.429688 6.058594 C 14.308594 5.769531 14.148438 5.511719 13.941406 5.289062 C 13.730469 5.070312 13.480469 4.898438 13.179688 4.78125 C 12.890625 4.660156 12.558594 4.589844 12.210938 4.589844 C 11.878906 4.589844 11.558594 4.648438 11.269531 4.78125 C 10.980469 4.910156 10.71875 5.078125 10.5 5.300781 C 10.28125 5.519531 10.109375 5.769531 9.980469 6.070312 C 9.851562 6.359375 9.789062 6.679688 9.789062 7.011719 C 9.789062 7.339844 9.851562 7.660156 9.96875 7.949219 C 10.089844 8.238281 10.261719 8.5 10.46875 8.71875 C 10.679688 8.941406 10.941406 9.109375 11.25 9.238281 C 11.550781 9.371094 11.890625 9.429688 12.238281 9.429688 C 13.269531 9.429688 13.921875 8.960938 14.300781 8.519531 L 13.421875 7.851562 C 13.230469 8.070312 12.789062 8.371094 12.238281 8.371094 C 11.898438 8.371094 11.609375 8.289062 11.398438 8.128906 C 11.179688 7.96875 11.039062 7.761719 10.960938 7.488281 L 10.960938 7.449219 C 10.960938 7.449219 14.589844 7.449219 14.589844 7.449219 L 14.589844 7.011719 Z M 10.96875 6.570312 C 10.96875 6.230469 11.359375 5.640625 12.199219 5.640625 C 13.039062 5.640625 13.429688 6.230469 13.429688 6.570312 Z M 10.96875 6.570312 "/>
<path style=" stroke:none;fill-rule:nonzero;fill:rgb(0%,42.352941%,88.235294%);fill-opacity:1;" d="M 17.859375 8.75 C 17.839844 8.699219 17.800781 8.648438 17.761719 8.609375 C 17.71875 8.570312 17.671875 8.539062 17.621094 8.511719 C 17.570312 8.488281 17.511719 8.46875 17.441406 8.46875 C 17.371094 8.46875 17.320312 8.480469 17.261719 8.511719 C 17.210938 8.53125 17.160156 8.570312 17.121094 8.609375 C 17.078125 8.648438 17.050781 8.699219 17.019531 8.75 C 17 8.800781 16.980469 8.859375 16.980469 8.929688 C 16.980469 9 16.988281 9.050781 17.019531 9.109375 C 17.039062 9.160156 17.078125 9.210938 17.121094 9.25 C 17.160156 9.289062 17.210938 9.320312 17.261719 9.351562 C 17.308594 9.378906 17.371094 9.390625 17.441406 9.390625 C 17.511719 9.390625 17.558594 9.378906 17.621094 9.351562 C 17.671875 9.328125 17.71875 9.289062 17.761719 9.25 C 17.800781 9.210938 17.828125 9.160156 17.859375 9.109375 C 17.878906 9.058594 17.898438 9 17.898438 8.929688 C 17.898438 8.859375 17.890625 8.808594 17.859375 8.75 Z M 17.789062 9.070312 C 17.789062 9.070312 17.738281 9.148438 17.710938 9.191406 C 17.679688 9.21875 17.640625 9.25 17.589844 9.269531 C 17.539062 9.289062 17.5 9.300781 17.449219 9.300781 C 17.398438 9.300781 17.351562 9.300781 17.308594 9.269531 C 17.261719 9.25 17.230469 9.21875 17.191406 9.191406 C 17.160156 9.160156 17.128906 9.121094 17.109375 9.070312 C 17.089844 9.019531 17.078125 8.980469 17.078125 8.929688 C 17.078125 8.878906 17.078125 8.828125 17.109375 8.789062 C 17.128906 8.738281 17.160156 8.710938 17.191406 8.671875 C 17.21875 8.640625 17.261719 8.609375 17.308594 8.589844 C 17.359375 8.570312 17.398438 8.558594 17.449219 8.558594 C 17.5 8.558594 17.550781 8.558594 17.589844 8.589844 C 17.640625 8.609375 17.671875 8.640625 17.710938 8.671875 C 17.738281 8.699219 17.769531 8.738281 17.789062 8.789062 C 17.808594 8.839844 17.820312 8.878906 17.820312 8.929688 C 17.820312 8.980469 17.820312 9.03125 17.789062 9.070312 Z M 17.53125 8.960938 C 17.53125 8.960938 17.589844 8.941406 17.621094 8.921875 C 17.640625 8.898438 17.648438 8.859375 17.648438 8.820312 C 17.648438 8.769531 17.640625 8.730469 17.609375 8.699219 C 17.578125 8.671875 17.53125 8.660156 17.46875 8.660156 L 17.269531 8.660156 L 17.269531 9.179688 L 17.359375 9.179688 L 17.359375 8.96875 L 17.429688 8.96875 L 17.558594 9.179688 L 17.660156 9.179688 Z M 17.480469 8.890625 C 17.480469 8.890625 17.449219 8.890625 17.441406 8.890625 L 17.371094 8.890625 L 17.371094 8.75 L 17.441406 8.75 C 17.441406 8.75 17.46875 8.75 17.480469 8.75 C 17.488281 8.75 17.511719 8.75 17.519531 8.75 C 17.53125 8.75 17.539062 8.761719 17.550781 8.769531 C 17.550781 8.769531 17.558594 8.789062 17.558594 8.808594 C 17.558594 8.828125 17.558594 8.839844 17.550781 8.851562 C 17.550781 8.851562 17.53125 8.871094 17.519531 8.871094 C 17.511719 8.871094 17.5 8.871094 17.480469 8.871094 Z M 17.480469 8.890625 "/>
</g>
</svg>
