<svg width="18" height="18" viewBox="0 0 18 18" fill="none" xmlns="http://www.w3.org/2000/svg">
<rect x="13.5" y="8.5" width="4" height="8" rx="2" stroke="#006CE1"/>
<rect x="15" y="10" width="1" height="2" fill="#006CE1"/>
<path d="M11 14.5H1.5C0.947715 14.5 0.5 14.0523 0.5 13.5V4.5C0.5 3.94771 0.947715 3.5 1.5 3.5H16.5C17.0523 3.5 17.5 3.94772 17.5 4.5V6" stroke="#006CE1" stroke-miterlimit="10" stroke-linejoin="round"/>
<path d="M3.99995 5H1.99995V7H3.99995V5Z" fill="#006CE1"/>
<path d="M7.99995 5H5.99995V7H7.99995V5Z" fill="#006CE1"/>
<path d="M12 5H9.99995V7H12V5Z" fill="#006CE1"/>
<path d="M16 5H14V6H16V5Z" fill="#006CE1"/>
<path d="M5.99995 8H3.99995V10H5.99995V8Z" fill="#006CE1"/>
<path d="M9.99995 8H7.99995V10H9.99995V8Z" fill="#006CE1"/>
<path d="M11 11H4.99995V13H11V11Z" fill="#006CE1"/>
</svg>
