<svg width="18" height="18" viewBox="0 0 18 18" fill="none" xmlns="http://www.w3.org/2000/svg">
<g clip-path="url(#clip0_2455_13461)">
<g clip-path="url(#clip1_2455_13461)">
<path d="M17.5 3.5H0.5V14.5H17.5V3.5Z" stroke="#006CE1" stroke-miterlimit="10" stroke-linejoin="round"/>
<path d="M2 5V7H4V5H2Z" fill="#006CE1"/>
<path d="M6 5V7H8V5H6Z" fill="#006CE1"/>
<path d="M10 5V7H12V5H10Z" fill="#006CE1"/>
<path d="M14 5V7H16V5H14Z" fill="#006CE1"/>
<path d="M4.0462 7.9642V9.9642H6.0462V7.9642H4.0462Z" fill="#006CE1"/>
<path d="M8.0351 7.95309V9.95309H10.0351V7.95309H8.0351Z" fill="#006CE1"/>
<path d="M12.0351 7.95309V9.95309H14.0351V7.95309H12.0351Z" fill="#006CE1"/>
<path d="M5 11V13H13V11H5Z" fill="#006CE1"/>
</g>
</g>
<defs>
<clipPath id="clip0_2455_13461">
<rect width="18" height="18" fill="white"/>
</clipPath>
<clipPath id="clip1_2455_13461">
<rect width="18.1" height="11.9" fill="white" transform="translate(0 3)"/>
</clipPath>
</defs>
</svg>
