<svg width="18" height="18" viewBox="0 0 18 18" fill="none" xmlns="http://www.w3.org/2000/svg">
<g clip-path="url(#clip0_2455_13299)">
<path fill-rule="evenodd" clip-rule="evenodd" d="M15.5556 5C15.8317 5 16.0556 5.22386 16.0556 5.5L16.0556 12.5C16.0556 12.7761 15.8317 13 15.5556 13L1.44444 13C1.1683 13 0.944444 12.7761 0.944444 12.5L0.944445 5.5C0.944445 5.22386 1.1683 5 1.44444 5L15.5556 5ZM17 12.5C17 13.3284 16.3284 14 15.5 14L1.5 14C0.671573 14 -4.07759e-07 13.3284 -3.71547e-07 12.5L-6.55671e-08 5.5C-2.93554e-08 4.67157 0.671574 4 1.5 4L15.5 4C16.3284 4 17 4.67157 17 5.5L17 12.5Z" fill="#006CE1"/>
<rect x="17" y="7" width="1" height="4" fill="#006CE1"/>
<rect x="2" y="6" width="13" height="6" fill="#006CE1"/>
</g>
<defs>
<clipPath id="clip0_2455_13299">
<rect width="18" height="18" fill="white"/>
</clipPath>
</defs>
</svg>
