<svg width="18" height="18" viewBox="0 0 18 18" fill="none" xmlns="http://www.w3.org/2000/svg">
<g clip-path="url(#clip0_2455_13541)">
<path d="M17.5 0.5C17.5 0.5 17.8 2.6 15.1 2.9C12.4 3.2 12.7 5.3 12.7 5.3" stroke="#006CE1" stroke-miterlimit="10" stroke-linecap="round" stroke-linejoin="round"/>
<path d="M1.7 16.2C-7.15256e-07 14.5 -7.15256e-07 11.9 1.7 10.2L6.7 5.2C8.4 3.5 11 3.6 12.7 5.2C14.4 6.9 14.4 9.5 12.7 11.2L7.7 16.2C6.1 17.9 3.4 17.9 1.7 16.2Z" stroke="#006CE1" stroke-miterlimit="10" stroke-linejoin="round"/>
<path d="M8.2 9.8C7.8 9.4 7.8 8.9 8.2 8.5L9.7 7C10.1 6.6 10.6 6.6 11 7C11.4 7.4 11.4 7.9 11 8.3L9.5 9.8C9.1 10.2 8.5 10.2 8.2 9.8Z" fill="#006CE1"/>
</g>
<defs>
<clipPath id="clip0_2455_13541">
<rect width="18" height="18" fill="white"/>
</clipPath>
</defs>
</svg>
