<svg width="18" height="18" viewBox="0 0 18 18" fill="none" xmlns="http://www.w3.org/2000/svg">
<g clip-path="url(#clip0_2455_13543)">
<path d="M12.5 2.9C13.1 3.1 13.7 3.4 14.2 3.8C14.7 4.3 15 4.8 15.1 5.4" stroke="#006CE1" stroke-miterlimit="10" stroke-linecap="round"/>
<path d="M12.7 0.5C13.8 0.7 14.9 1.3 15.8 2.2C16.7 3.1 17.2 4.2 17.5 5.3" stroke="#006CE1" stroke-miterlimit="10" stroke-linecap="round"/>
<path d="M1.7 16.3C3.09944e-06 14.6 3.09944e-06 12 1.7 10.3L6.7 5.3C8.4 3.6 11 3.7 12.7 5.3C14.4 7 14.4 9.6 12.7 11.3L7.7 16.3C6.1 17.9 3.4 17.9 1.7 16.3Z" stroke="#006CE1" stroke-miterlimit="10" stroke-linejoin="round"/>
<path d="M8.2 9.8C7.8 9.4 7.8 8.9 8.2 8.5L9.7 7C10.1 6.6 10.6 6.6 11 7C11.4 7.4 11.4 7.9 11 8.3L9.5 9.8C9.1 10.2 8.5 10.2 8.2 9.8Z" fill="#006CE1"/>
</g>
<defs>
<clipPath id="clip0_2455_13543">
<rect width="18" height="18" fill="white"/>
</clipPath>
</defs>
</svg>
