<svg width="18" height="18" viewBox="0 0 18 18" fill="none" xmlns="http://www.w3.org/2000/svg">
<path d="M3.8 14.8C2.1 13.1 2.1 10.4 3.8 8.79999L8.8 3.79999C10.5 2.09999 13.2 2.09999 14.8 3.79999C16.5 5.49999 16.5 8.19999 14.8 9.79999L9.8 14.8C8.1 16.5 5.4 16.4 3.8 14.8Z" stroke="#006CE1" stroke-miterlimit="10" stroke-linejoin="round"/>
<path d="M10.2 8.29998C9.8 7.99998 9.8 7.39998 10.2 6.99998L11.7 5.49998C12.1 5.09998 12.6 5.09998 13 5.49998C13.4 5.89998 13.4 6.39998 13 6.79998L11.5 8.29998C11.1 8.69998 10.6 8.69998 10.2 8.29998Z" fill="#006CE1"/>
</svg>
