<svg width="18" height="18" viewBox="0 0 18 18" fill="none" xmlns="http://www.w3.org/2000/svg">
<mask id="path-1-inside-1_4141_6751" fill="white">
<path d="M13.21 2.81491C13.371 2.57839 13.3105 2.25455 13.0641 2.10919C11.6529 1.27685 10.0159 0.895711 8.37427 1.02451C6.56001 1.16685 4.8485 1.9235 3.5222 3.16959C2.1959 4.41567 1.33409 6.07672 1.07899 7.87859C0.82389 9.68046 1.19075 11.5155 2.11904 13.0807C3.04732 14.646 4.48154 15.848 6.18499 16.4884C7.88844 17.1287 9.75931 17.1692 11.4888 16.603C13.2184 16.0368 14.7032 14.8979 15.6982 13.3742C16.5986 11.9955 17.0493 10.3763 16.9957 8.73877C16.9864 8.4528 16.7312 8.24444 16.4465 8.27227V8.27227C16.1617 8.3001 15.9554 8.55366 15.962 8.8397C15.9944 10.2422 15.6022 11.6264 14.8307 12.8077C13.9645 14.1341 12.672 15.1255 11.1665 15.6183C9.66097 16.1111 8.0324 16.0759 6.54957 15.5185C5.06675 14.9611 3.81829 13.9148 3.01023 12.5522C2.20218 11.1897 1.88283 9.59233 2.10488 8.02383C2.32694 6.45533 3.07714 5.00942 4.23166 3.92472C5.38618 2.84002 6.87603 2.18137 8.45531 2.05746C9.86191 1.9471 11.2646 2.26682 12.4798 2.96784C12.7276 3.11081 13.049 3.05144 13.21 2.81491V2.81491Z"/>
</mask>
<path d="M13.21 2.81491C13.371 2.57839 13.3105 2.25455 13.0641 2.10919C11.6529 1.27685 10.0159 0.895711 8.37427 1.02451C6.56001 1.16685 4.8485 1.9235 3.5222 3.16959C2.1959 4.41567 1.33409 6.07672 1.07899 7.87859C0.82389 9.68046 1.19075 11.5155 2.11904 13.0807C3.04732 14.646 4.48154 15.848 6.18499 16.4884C7.88844 17.1287 9.75931 17.1692 11.4888 16.603C13.2184 16.0368 14.7032 14.8979 15.6982 13.3742C16.5986 11.9955 17.0493 10.3763 16.9957 8.73877C16.9864 8.4528 16.7312 8.24444 16.4465 8.27227V8.27227C16.1617 8.3001 15.9554 8.55366 15.962 8.8397C15.9944 10.2422 15.6022 11.6264 14.8307 12.8077C13.9645 14.1341 12.672 15.1255 11.1665 15.6183C9.66097 16.1111 8.0324 16.0759 6.54957 15.5185C5.06675 14.9611 3.81829 13.9148 3.01023 12.5522C2.20218 11.1897 1.88283 9.59233 2.10488 8.02383C2.32694 6.45533 3.07714 5.00942 4.23166 3.92472C5.38618 2.84002 6.87603 2.18137 8.45531 2.05746C9.86191 1.9471 11.2646 2.26682 12.4798 2.96784C12.7276 3.11081 13.049 3.05144 13.21 2.81491V2.81491Z" fill="#666666" stroke="#006CE1" stroke-width="2" mask="url(#path-1-inside-1_4141_6751)"/>
<path d="M6 7.5L8.77778 11L16 4" stroke="#006CE1" stroke-linecap="round"/>
</svg>
