<svg width="18" height="18" viewBox="0 0 18 18" fill="none" xmlns="http://www.w3.org/2000/svg">
<path d="M6.00005 10.5H5.76798L5.61818 10.6772L6.00005 11L5.61816 10.6773L5.61809 10.6773L5.61782 10.6777L5.61672 10.679L5.61234 10.6841L5.59517 10.7044L5.52956 10.782L5.29246 11.0616C5.09464 11.2946 4.82725 11.6089 4.54877 11.9342C3.98173 12.5967 3.3965 13.272 3.23531 13.4327C2.96172 13.7054 2.2317 14.1601 1.30189 13.6966C0.88708 13.4899 0.68 13.1158 0.578629 12.6743C0.490417 12.2902 0.495202 11.9177 0.49876 11.6409C0.499406 11.5906 0.500011 11.5435 0.500012 11.5C0.500012 11.5022 0.499992 11.5034 0.500037 11.5034C0.500213 11.5034 0.501378 11.4855 0.508554 11.4411C0.516488 11.392 0.529047 11.3267 0.546649 11.2447C0.581776 11.0813 0.633666 10.8672 0.699265 10.6142C0.830236 10.109 1.01192 9.4634 1.21293 8.78645C1.61741 7.4243 2.08952 5.97094 2.37665 5.28402C2.92389 3.97483 3.85282 3.5 4.30528 3.5H13.6261C14.1009 3.5 15.1345 3.99937 15.6716 5.27773C16.2556 6.79553 17.3193 11.0327 17.443 11.5261C17.487 11.7015 17.5414 12.1639 17.4517 12.6364C17.3629 13.1043 17.1529 13.4953 16.749 13.6966C15.8192 14.1601 15.0891 13.7054 14.8156 13.4327C14.6518 13.2695 14.0517 12.591 13.4731 11.93C13.1882 11.6046 12.9144 11.2902 12.7118 11.0571L12.4689 10.7774L12.4016 10.6999L12.384 10.6796L12.3795 10.6744L12.3784 10.6731L12.3781 10.6728L12.378 10.6727L12.0001 11L12.378 10.6727L12.2285 10.5H12.0001H6.00005Z" stroke="#006CE1" stroke-miterlimit="10"/>
<path d="M5.50006 6.5H6.50006V7.5H5.50006V6.5Z" fill="#666666" stroke="#006CE1"/>
<path d="M11.5 6.5H12.5V7.5H11.5V6.5Z" fill="#666666" stroke="#006CE1"/>
</svg>
