<svg width="18" height="18" viewBox="0 0 18 18" fill="none" xmlns="http://www.w3.org/2000/svg">
<path d="M4.5 5.5C4.5 4.91421 4.5 4.16667 4.5 4C4.5 3.83333 4.6 3.5 5 3.5C5.4 3.5 11 3.5 13 3.5C13.3333 3.5 13.5 3.6 13.5 4C13.5 4.4 13.5 4.83333 13.5 5.5" stroke="#006CE1"/>
<path d="M13 12.5H15" stroke="#006CE1"/>
<path d="M1.5 6.5C1.5 5.94772 1.94772 5.5 2.5 5.5H15.5C16.0523 5.5 16.5 5.94772 16.5 6.5V13.5C16.5 14.0523 16.0523 14.5 15.5 14.5H2.5C1.94772 14.5 1.5 14.0523 1.5 13.5V6.5Z" stroke="#006CE1"/>
<path d="M2 8.5H16.5" stroke="#006CE1"/>
</svg>
