<svg width="18" height="18" viewBox="0 0 18 18" fill="none" xmlns="http://www.w3.org/2000/svg">
<path d="M16.5 7.5H1.5V12.5C1.5 13.0523 1.94616 13.5 2.49844 13.5H9H15.5016C16.0538 13.5 16.5 13.0523 16.5 12.5V7.5Z" stroke="#006CE1"/>
<path d="M1.5 9.5H16.5" stroke="#006CE1"/>
<path d="M14.5 4V7.5" stroke="#006CE1"/>
<mask id="path-4-inside-1_4141_6754" fill="white">
<path d="M4.49039 11.5C4.49039 11.7761 4.26653 12 3.99039 12C3.71424 12 3.49039 11.7761 3.49039 11.5C3.49039 11.2239 3.71424 11 3.99039 11C4.26653 11 4.49039 11.2239 4.49039 11.5Z"/>
</mask>
<path d="M4.49039 11.5C4.49039 11.7761 4.26653 12 3.99039 12C3.71424 12 3.49039 11.7761 3.49039 11.5C3.49039 11.2239 3.71424 11 3.99039 11C4.26653 11 4.49039 11.2239 4.49039 11.5Z" fill="#006CE1"/>
<path d="M3.49039 11.5C3.49039 11.2239 3.71424 11 3.99039 11V13C4.81881 13 5.49039 12.3284 5.49039 11.5H3.49039ZM3.99039 11C4.26653 11 4.49039 11.2239 4.49039 11.5H2.49039C2.49039 12.3284 3.16196 13 3.99039 13V11ZM4.49039 11.5C4.49039 11.7761 4.26653 12 3.99039 12V10C3.16196 10 2.49039 10.6716 2.49039 11.5H4.49039ZM3.99039 12C3.71424 12 3.49039 11.7761 3.49039 11.5H5.49039C5.49039 10.6716 4.81881 10 3.99039 10V12Z" fill="#006CE1" mask="url(#path-4-inside-1_4141_6754)"/>
<path d="M3.5 4V7.5" stroke="#006CE1"/>
</svg>
