<svg width="18" height="18" viewBox="0 0 18 18" fill="none" xmlns="http://www.w3.org/2000/svg">
<path d="M2.6 13.5C2.4 13.6 2.3 13.5 2.4 13.3L2.6 12.9C2.7 12.7 2.9 12.7 3 12.8L3.1 13C3.2 13.2 3.2 13.3 3 13.4L2.6 13.5Z" fill="#006CE1"/>
<path d="M11 4.59999C10.9 4.69999 10.7 4.69999 10.7 4.59999C10.6 4.59999 10.6 4.39999 10.7 4.29999L12.6 2.49999C12.7 2.39999 12.8 2.39999 12.9 2.49999C13 2.59999 12.9 2.69999 12.8 2.79999L11 4.59999Z" fill="#006CE1"/>
<path d="M14.6 3L13.7 2C13.7 2 13.6 2 13.5 2L13.1 2.3C13.1 2.3 13.2 2.3 13.2 2.4C13.3 2.5 13.3 2.7 13.1 2.8L10.8 5C10.7 5.1 10.6 5.1 10.5 5V4.9L3.7 11.1C3.6 11.2 3.5 11.3 3.5 11.4L2.9 12.3C2.9 12.4 2.9 12.5 2.9 12.5L3.3 13C3.3 13 3.4 13.1 3.5 13L4.5 12.5C4.6 12.5 4.7 12.4 4.8 12.3L14.7 3.2C14.7 3.2 14.7 3.1 14.6 3Z" fill="#006CE1"/>
<path d="M2 14.8C2 14.8 6.1 16.5 9.7 15C13.3 13.5 16.9 15.4 16.9 15.4" stroke="#006CE1" stroke-width="0.5" stroke-miterlimit="10" stroke-linecap="round" stroke-linejoin="round"/>
</svg>
