<svg width="18" height="18" viewBox="0 0 18 18" fill="none" xmlns="http://www.w3.org/2000/svg">
<path d="M2.5 7.5L6.5 3.5H15.5L11.5 7.5H2.5Z" stroke="#006CE1" stroke-linejoin="round"/>
<circle cx="6.5" cy="3.5" r="1.5" fill="#006CE1"/>
<circle cx="11.5" cy="15.5" r="1.5" fill="#006CE1"/>
<circle cx="2.5" cy="15.5" r="1.5" fill="#006CE1"/>
<path d="M8.00001 11.5C8.00001 12.3284 7.32843 13 6.50001 13C5.67158 13 5.00001 12.3284 5.00001 11.5C5.00001 10.6716 5.67158 10 6.50001 10C7.32843 10 8.00001 10.6716 8.00001 11.5Z" fill="#006CE1"/>
<path d="M2.5 7.5V15.5H11.5M11.5 15.5V7.5L15.5 3.5V11.5L11.5 15.5Z" stroke="#006CE1" stroke-linejoin="round"/>
<path d="M6.5 11.5L2.5 15.5H11.5L15.5 11.5H6.5Z" stroke="#006CE1" stroke-linejoin="round"/>
<path d="M6.5 3.5V12" stroke="#006CE1"/>
<circle cx="2.5" cy="7.5" r="1.5" fill="#006CE1"/>
<circle cx="11.5" cy="7.5" r="1.5" fill="#006CE1"/>
<circle cx="15.5" cy="3.5" r="1.5" fill="#006CE1"/>
<path d="M17 11.5C17 12.3284 16.3284 13 15.5 13C14.6716 13 14 12.3284 14 11.5C14 10.6716 14.6716 10 15.5 10C16.3284 10 17 10.6716 17 11.5Z" fill="#006CE1"/>
</svg>
