<svg width="18" height="18" viewBox="0 0 18 18" fill="none" xmlns="http://www.w3.org/2000/svg">
<path d="M15.5698 4H2.43017C1.6257 4 1 4.58824 1 5.34454V12.6555C1 13.4118 1.6257 14 2.43017 14H15.5698C16.3743 14 17 13.4118 17 12.6555V5.34454C17 4.58824 16.3743 4 15.5698 4ZM15.5698 11.0588C15.5698 12.0672 15.0726 12.5 14 12.5H4C2.92737 12.5 2.43017 12.0672 2.43017 11.0588V6.94118C2.43017 5.93277 2.92737 5.34454 4 5.34454H14C15.0726 5.34454 15.5698 5.93277 15.5698 6.94118V11.0588Z" fill="#006CE1"/>
</svg>
