<svg width="18" height="18" viewBox="0 0 18 18" fill="none" xmlns="http://www.w3.org/2000/svg">
<g clip-path="url(#clip0_2455_13565)">
<path d="M11.3 1.4L6.5 0.5C6.3 0.5 6.1 0.4 5.9 0.5C5.7 0.5 5.6 0.6 5.4 0.7C5.3 0.8 5.2 0.9 5.1 1C5.1 1.1 5.1 1.3 5.1 1.5L8.3 10.9C8.4 11.1 8.5 11.3 8.6 11.5C8.8 11.7 9 11.9 9.2 12C9.4 12.2 9.7 12.3 9.9 12.4C10.2 12.5 10.4 12.6 10.7 12.6L16 13.3C16.2 13.3 16.5 13.3 16.6 13.3C16.8 13.3 16.9 13.2 17 13.1C17.1 13 17.2 12.8 17.2 12.7C17.2 12.5 17.2 12.4 17.1 12.2L13.4 3C13.3 2.8 13.2 2.7 13.1 2.5C13 2.3 12.8 2.1 12.6 2C12.4 1.9 12.2 1.7 12 1.6C11.7 1.6 11.5 1.5 11.3 1.4Z" stroke="#006CE1" stroke-miterlimit="10"/>
<path d="M11.5 11L9.8 7C9.7 6.8 9.6 6.7 9.5 6.5C9.3 6.3 9.2 6.2 9 6.1C8.8 5.9 8.6 5.8 8.4 5.7" stroke="#006CE1" stroke-width="0.5" stroke-miterlimit="10" stroke-linecap="round" stroke-linejoin="round"/>
<path d="M6.5 5.3L2.9 4.6C2.7 4.6 2.5 4.5 2.3 4.6C2 4.6 1.9 4.7 1.8 4.7C1.6 4.8 1.6 4.9 1.5 5.1C1.5 5.2 1.5 5.4 1.5 5.6L4.8 15C4.9 15.2 5 15.4 5.1 15.6C5.3 15.8 5.5 16 5.7 16.1C5.9 16.3 6.2 16.4 6.4 16.5C6.7 16.6 6.9 16.7 7.2 16.7L12.5 17.4C12.7 17.4 13 17.4 13.1 17.4C13.3 17.4 13.4 17.3 13.5 17.2C13.6 17.1 13.7 16.9 13.7 16.8C13.7 16.6 13.7 16.5 13.6 16.3L12.2 13" stroke="#006CE1" stroke-miterlimit="10" stroke-linecap="round" stroke-linejoin="round"/>
<path d="M10.4 2.8L9 2.6" stroke="#006CE1" stroke-width="0.5" stroke-miterlimit="10" stroke-linecap="round"/>
</g>
<defs>
<clipPath id="clip0_2455_13565">
<rect width="16.8" height="17.9" fill="white" transform="translate(1)"/>
</clipPath>
</defs>
</svg>
