<svg width="18" height="18" viewBox="0 0 18 18" fill="none" xmlns="http://www.w3.org/2000/svg">
<path d="M6.49996 7.5L6.47996 1C6.47996 0.72 6.70996 0.5 6.99996 0.5H13.98C14.27 0.5 14.5 0.72 14.5 1V17C14.5 17.28 14.27 17.5 13.98 17.5H3C2.71 17.5 2.48 17.28 2.48 17V8C2.48 7.72 2.71 7.5 3 7.5H6.12996C6.41996 7.5 6.48996 7.28 6.48996 7L6.49996 7.5Z" stroke="#006CE1" stroke-miterlimit="10"/>
<path d="M8.5 0.5V3" stroke="#006CE1" stroke-miterlimit="10"/>
<path d="M10.5 0.5V3" stroke="#006CE1" stroke-miterlimit="10"/>
<path d="M12.5 0.5V3" stroke="#006CE1" stroke-miterlimit="10"/>
<path d="M5.84009 7.5H14.0001" stroke="#006CE1" stroke-miterlimit="10"/>
</svg>
