<svg width="18" height="18" viewBox="0 0 18 18" fill="none" xmlns="http://www.w3.org/2000/svg">
<path d="M6 10.5146V7.48541C6 7.2624 6.23469 7.11735 6.43416 7.21708L9.46334 8.73167C9.68446 8.84223 9.68446 9.15777 9.46334 9.26833L6.43416 10.7829C6.23469 10.8827 6 10.7376 6 10.5146Z" fill="#006CE1"/>
<path d="M2.13307 5.17141C2.23267 5.06286 2.44204 4.93922 2.80888 4.83124C3.16452 4.72656 3.61237 4.65238 4.12618 4.60177C5.15454 4.50048 6.37097 4.5 7.49963 4.5C8.6283 4.5 9.84473 4.50048 10.8731 4.60178C11.3869 4.65239 11.8347 4.72657 12.1904 4.83125C12.5572 4.93922 12.7666 5.06286 12.8662 5.17141C13.108 5.43495 13.2814 5.8965 13.382 6.58952C13.4808 7.26984 13.4993 8.09017 13.4993 9C13.4993 9.09243 13.4994 9.18542 13.4996 9.27875C13.501 10.1241 13.5025 10.9971 13.388 11.7311C13.3248 12.1361 13.2309 12.4627 13.1036 12.7012C12.9801 12.9325 12.8397 13.056 12.6816 13.1134C12.18 13.2956 11.4639 13.3972 10.5591 13.4487C9.66201 13.4998 8.62599 13.5 7.49963 13.5C6.37327 13.5 5.33726 13.4998 4.44014 13.4487C3.53538 13.3972 2.81929 13.2956 2.31771 13.1134C2.18075 13.0637 2.04779 12.9501 1.92517 12.72C1.79982 12.4847 1.70395 12.1602 1.63656 11.7563C1.50136 10.9459 1.5 9.94893 1.5 9C1.5 8.05183 1.50096 7.25593 1.59103 6.59341C1.68087 5.93252 1.85118 5.47861 2.13307 5.17141Z" stroke="#006CE1"/>
<path d="M13.5 10.3394V7.66056C13.5 7.56025 13.5501 7.46658 13.6336 7.41094L16.0336 5.81094C16.233 5.67803 16.5 5.82095 16.5 6.06055V11.9394C16.5 12.1791 16.233 12.322 16.0336 12.1891L13.6336 10.5891C13.5501 10.5334 13.5 10.4398 13.5 10.3394Z" stroke="#006CE1"/>
</svg>
