<svg width="18" height="18" viewBox="0 0 18 18" fill="none" xmlns="http://www.w3.org/2000/svg">
<line x1="11.5" y1="0.5" x2="15.5" y2="0.5" stroke="#006CE1" stroke-linecap="round"/>
<line x1="10.5" y1="3.5" x2="16.5" y2="3.5" stroke="#006CE1" stroke-linecap="round"/>
<line x1="12.5" y1="0.5" x2="12.5" y2="3.5" stroke="#006CE1" stroke-linecap="round"/>
<line x1="14.5" y1="0.5" x2="14.5" y2="3.5" stroke="#006CE1" stroke-linecap="round"/>
<line x1="11.5" y1="6.5" x2="13.5" y2="6.5" stroke="#006CE1" stroke-linecap="round"/>
<line x1="11.5" y1="9.5" x2="13.5" y2="9.5" stroke="#006CE1" stroke-linecap="round"/>
<line x1="11.5" y1="12.5" x2="12.5" y2="12.5" stroke="#006CE1" stroke-linecap="round"/>
<path d="M13.309 17.5L12.309 15.5L14.691 15.5L13.691 17.5L13.309 17.5Z" stroke="#006CE1" stroke-linecap="round"/>
<rect x="11.5" y="3.5" width="4" height="12" stroke="#006CE1" stroke-linejoin="round"/>
<path d="M8.5 2V7C7.39543 7 6.5 7.89543 6.5 9C6.5 10.1046 7.39543 11 8.5 11V16" stroke="#006CE1" stroke-linecap="round"/>
<path d="M6.5 15L8.5 14" stroke="#006CE1" stroke-linecap="round"/>
<path d="M6.5 3L8.5 4" stroke="#006CE1" stroke-linecap="round"/>
<path d="M6.5 8L4.5 6.5M2.5 4.88889L4.5 6.5M4.5 6.5V4M4.5 6.5L2 7.5" stroke="#006CE1" stroke-linecap="round"/>
<path d="M6.5 10L4.5 11.5M2.5 13L4.5 11.5M4.5 11.5V14M4.5 11.5L2 10.5" stroke="#006CE1" stroke-linecap="round"/>
</svg>
