<svg width="18" height="18" viewBox="0 0 18 18" fill="none" xmlns="http://www.w3.org/2000/svg">
<g clip-path="url(#clip0_4255_1034)">
<path d="M15.94 0.5H2.06C1.75072 0.5 1.5 0.75072 1.5 1.06V16.94C1.5 17.2493 1.75072 17.5 2.06 17.5H15.94C16.2493 17.5 16.5 17.2493 16.5 16.94V1.06C16.5 0.75072 16.2493 0.5 15.94 0.5Z" stroke="#006CE1" stroke-miterlimit="10"/>
<path d="M13.91 2.5H4.09C3.76415 2.5 3.5 2.76415 3.5 3.09V3.91C3.5 4.23585 3.76415 4.5 4.09 4.5H13.91C14.2358 4.5 14.5 4.23585 14.5 3.91V3.09C14.5 2.76415 14.2358 2.5 13.91 2.5Z" stroke="#006CE1" stroke-miterlimit="10"/>
<path d="M13.91 6.5H4.09C3.76415 6.5 3.5 6.76415 3.5 7.09V7.91C3.5 8.23585 3.76415 8.5 4.09 8.5H13.91C14.2358 8.5 14.5 8.23585 14.5 7.91V7.09C14.5 6.76415 14.2358 6.5 13.91 6.5Z" stroke="#006CE1" stroke-miterlimit="10"/>
<path d="M13.91 10.5H4.09C3.76415 10.5 3.5 10.7642 3.5 11.09V11.91C3.5 12.2358 3.76415 12.5 4.09 12.5H13.91C14.2358 12.5 14.5 12.2358 14.5 11.91V11.09C14.5 10.7642 14.2358 10.5 13.91 10.5Z" stroke="#006CE1" stroke-miterlimit="10"/>
</g>
<defs>
<clipPath id="clip0_4255_1034">
<rect width="16" height="18" fill="white" transform="translate(1)"/>
</clipPath>
</defs>
</svg>
