<svg width="18" height="18" viewBox="0 0 18 18" fill="none" xmlns="http://www.w3.org/2000/svg">
<path d="M15 8.5C14.1716 8.5 13.5 7.82843 13.5 7C13.5 6.17157 14.1716 5.5 15 5.5C15.8284 5.5 16.5 6.17157 16.5 7C16.5 7.82843 15.8284 8.5 15 8.5Z" stroke="#006CE1"/>
<path d="M15 14.5C14.1716 14.5 13.5 13.8284 13.5 13C13.5 12.1716 14.1716 11.5 15 11.5C15.8284 11.5 16.5 12.1716 16.5 13C16.5 13.8284 15.8284 14.5 15 14.5Z" stroke="#006CE1"/>
<path d="M7.50747 7.86749C7.77873 7.38641 8.38862 7.21632 8.8697 7.48758L15.1962 11.0549L14.7051 11.9259L7.50747 7.86749Z" fill="#006CE1"/>
<path d="M9 12.5L9 11.2357L14.5883 8.04793L15.0321 8.94405L9 12.5Z" fill="#006CE1"/>
<mask id="mask0_2455_13611" style="mask-type:alpha" maskUnits="userSpaceOnUse" x="1" y="2" width="9" height="15">
<path d="M9.5 8.5V2.8C9.5 2.63431 9.36569 2.5 9.2 2.5H1.8C1.63431 2.5 1.5 2.63431 1.5 2.8V16.2C1.5 16.3657 1.63431 16.5 1.8 16.5H9.2C9.36569 16.5 9.5 16.3657 9.5 16.2V10" stroke="#666666"/>
</mask>
<g mask="url(#mask0_2455_13611)">
<path d="M8.5 12.5L12 10.5V18.5H0V1H11.0469V7.5L8.5 6V3.5H2.5V15.5H8.5V12.5Z" fill="#006CE1"/>
</g>
<rect x="3" y="4" width="1" height="2" fill="#006CE1"/>
<rect x="7" y="4" width="1" height="2" fill="#006CE1"/>
<rect x="3" y="7" width="1" height="2" fill="#006CE1"/>
<rect x="3" y="10" width="1" height="2" fill="#006CE1"/>
<rect x="7" y="10" width="1" height="2" fill="#006CE1"/>
<rect x="3" y="13" width="1" height="2" fill="#006CE1"/>
<rect x="7" y="13" width="1" height="2" fill="#006CE1"/>
</svg>
