<?xml version="1.0" encoding="UTF-8"?>
<svg width="18px" height="18px" viewBox="0 0 18 18" version="1.1" xmlns="http://www.w3.org/2000/svg" xmlns:xlink="http://www.w3.org/1999/xlink">
    <!-- Generator: Sketch 64 (93537) - https://sketch.com -->
    <title>Artboard</title>
    <desc>Created with Sketch.</desc>
    <g id="Artboard" stroke="none" stroke-width="1" fill="none" fill-rule="evenodd">
        <g id="Group-5" transform="translate(1.000000, 5.000000)" fill="#006CE1">
            <path d="M0,7.2998 L16,7.2998 L16,-0.0002 L0,-0.0002 L0,7.2998 Z M1,6.2998 L15,6.2998 L15,0.9998 L1,0.9998 L1,6.2998 Z" id="Fill-1"></path>
            <polygon id="Fill-2" points="5.5 3.2002 5.5 5.1002 2.2 5.1002 2.2 3.2002 2.9 3.2002 2.9 2.2002 4.8 2.2002 4.8 3.2002"></polygon>
            <polygon id="Fill-3" points="13.8 3.2002 13.8 5.1002 10.5 5.1002 10.5 3.2002 11.2 3.2002 11.2 2.2002 13.1 2.2002 13.1 3.2002"></polygon>
            <polygon id="Fill-4" points="9.6 3.2002 9.6 5.1002 6.3 5.1002 6.3 3.2002 7.1 3.2002 7.1 2.2002 9 2.2002 9 3.2002"></polygon>
        </g>
    </g>
</svg>