<svg width="18" height="18" viewBox="0 0 18 18" fill="none" xmlns="http://www.w3.org/2000/svg">
<path d="M12.43 8.08C12.35 7.93 12.21 7.84 12.04 7.83L9.57 7.66L10.31 3.75C10.35 3.53 10.23 3.31 10.03 3.23C9.82 3.14 9.58 3.21 9.45 3.4L5.62 9.03C5.52 9.17 5.51 9.35 5.58 9.5C5.65 9.65 5.8 9.75 5.97 9.77L8.81 10.02L7.97 14.2C7.92 14.43 8.05 14.65 8.26 14.73C8.32 14.75 8.37 14.76 8.43 14.76C8.59 14.76 8.75 14.68 8.83 14.53L12.41 8.54C12.5 8.4 12.5 8.23 12.43 8.08Z" fill="#006CE1"/>
<path d="M9.01 0.360001C4.26 0.360001 0.389999 4.23 0.389999 8.98C0.389999 13.73 4.26 17.6 9.01 17.6C13.76 17.6 17.63 13.73 17.63 8.98C17.63 4.23 13.76 0.360001 9.01 0.360001ZM9.01 16.65C4.78 16.65 1.33 13.21 1.33 8.97C1.33 4.73 4.78 1.3 9.01 1.3C13.24 1.3 16.69 4.74 16.69 8.98C16.69 13.22 13.24 16.65 9.01 16.65Z" fill="#006CE1"/>
</svg>
