<svg width="18" height="18" viewBox="0 0 18 18" fill="none" xmlns="http://www.w3.org/2000/svg">
<path d="M9.5 0.5V1.5C9.5 2.1 9.1 2.5 8.5 2.5H4.5C3.9 2.5 3.5 2.9 3.5 3.5" stroke="#006CE1" stroke-miterlimit="10" stroke-linecap="round" stroke-linejoin="round"/>
<path d="M3.5 3.7V4.5" stroke="#006CE1" stroke-miterlimit="10" stroke-linecap="round" stroke-linejoin="round"/>
<path d="M16.5 5.5H1.5C0.947715 5.5 0.5 5.94771 0.5 6.5V15.5C0.5 16.0523 0.947715 16.5 1.5 16.5H16.5C17.0523 16.5 17.5 16.0523 17.5 15.5V6.5C17.5 5.94772 17.0523 5.5 16.5 5.5Z" stroke="#006CE1" stroke-miterlimit="10" stroke-linejoin="round"/>
<path d="M3.99995 7H1.99995V9H3.99995V7Z" fill="#006CE1"/>
<path d="M7.99995 7H5.99995V9H7.99995V7Z" fill="#006CE1"/>
<path d="M12 7H9.99995V9H12V7Z" fill="#006CE1"/>
<path d="M16 7H14V9H16V7Z" fill="#006CE1"/>
<path d="M5.99995 10H3.99995V12H5.99995V10Z" fill="#006CE1"/>
<path d="M9.99995 10H7.99995V12H9.99995V10Z" fill="#006CE1"/>
<path d="M14 10H12V12H14V10Z" fill="#006CE1"/>
<path d="M13 13H4.99995V15H13V13Z" fill="#006CE1"/>
</svg>
