<svg width="18" height="18" viewBox="0 0 18 18" fill="none" xmlns="http://www.w3.org/2000/svg">
<path d="M7.16153 8.69706C7.72722 8.41421 8.36362 8.20208 9.00001 8.13137C9.70712 8.13137 10.2728 8.27279 10.7678 8.62635" stroke="#006CE1" stroke-miterlimit="10" stroke-linecap="round"/>
<path d="M5.6059 6.85858C6.59585 6.15147 7.79793 5.79792 9.07072 5.79792C10.3435 5.79792 11.4749 6.22218 12.4648 6.78787" stroke="#006CE1" stroke-miterlimit="10" stroke-linecap="round"/>
<path d="M2.49996 13.5C2.49996 13.5 2.49996 12.7222 2.49996 9.11111C2.49996 5.49999 4.99996 2.49999 8.99996 2.49999C13 2.49999 15.5 5.49999 15.5 8.72221C15.5 11.9444 15.5 11.2436 15.5 13.5" stroke="#006CE1" stroke-miterlimit="10" stroke-linecap="round"/>
<path d="M4.99996 16C4.4615 16 3.99996 15.4545 3.99996 14.8182V11.1818C3.99996 10.5454 4.4615 9.99999 4.99996 9.99999C5.53842 9.99999 5.99996 10.5454 5.99996 11.1818V14.8182C5.99996 15.4545 5.53842 16 4.99996 16Z" fill="#006CE1"/>
<path d="M13 16C12.4615 16 12 15.4545 12 14.8182V11.1818C12 10.5454 12.4615 9.99999 13 9.99999C13.5384 9.99999 14 10.5454 14 11.1818V14.8182C14 15.4545 13.5384 16 13 16Z" fill="#006CE1"/>
</svg>
